Coordinates
version=1
nRows=5
nColumns=40
inDegrees=yes

Units are S.I. units (second, meters, Newtons, ...)
Angles are in degrees.

endheader
time	pelvis_tilt	pelvis_list	pelvis_rotation	pelvis_tx	pelvis_ty	pelvis_tz	hip_flexion_r	hip_adduction_r	hip_rotation_r	knee_angle_r	knee_angle_r_beta	ankle_angle_r	subtalar_angle_r	mtp_angle_r	hip_flexion_l	hip_adduction_l	hip_rotation_l	knee_angle_l	knee_angle_l_beta	ankle_angle_l	subtalar_angle_l	mtp_angle_l	lumbar_extension	lumbar_bending	lumbar_rotation	arm_flex_r	arm_add_r	arm_rot_r	elbow_flex_r	pro_sup_r	wrist_flex_r	wrist_dev_r	arm_flex_l	arm_add_l	arm_rot_l	elbow_flex_l	pro_sup_l	wrist_flex_l	wrist_dev_l
     23.83000000	     -4.56926035	     -5.64949878	      4.01213692	      1.04174122	      0.92531826	      0.49975552	     15.76161531	      3.06816327	    -16.28788221	     20.83218407	     20.83218407	     11.18131261	     -3.82972235	     -1.88255302	     33.89993402	    -12.19197160	      4.65147164	     70.57366592	     70.57366592	      6.77921060	    -18.68636162	     12.14813630	    -12.17853650	      5.53900157	      3.27953964	      3.03457353	    -14.33271206	     -9.39939060	     52.05008700	     45.58578797	      0.00000000	      0.00000000	      8.83531992	     -9.72824444	     -2.12364821	     42.98379749	     45.86275569	      0.00000000	      0.00000000
     23.84171429	     -4.66023953	     -5.57879963	      4.30854298	      1.03965762	      0.92575245	      0.50017023	     15.13092031	      3.13285392	    -16.28841530	     20.33154214	     20.33154214	     11.46142569	     -3.93095631	     -1.83933852	     35.64927157	    -11.92865649	      4.65148680	     69.49743737	     69.49743737	      7.11488293	    -18.77700247	     12.37079190	    -12.20178833	      5.34461015	      2.80648750	      5.64281902	    -14.36878898	     -9.44987869	     53.98417062	     45.53221640	      0.00000000	      0.00000000	      7.12034563	     -9.67566060	     -1.85153544	     40.78933335	     45.81537824	      0.00000000	      0.00000000
     23.85342857	     -4.70012669	     -5.52450463	      4.61277018	      1.03765594	      0.92617460	      0.50054484	     14.44764443	      3.21825826	    -16.32915575	     19.83426098	     19.83426098	     11.72042023	     -4.07300048	     -1.80794497	     37.18289549	    -11.65844382	      4.62252837	     68.19516012	     68.19516012	      7.46179601	    -18.87607541	     12.76287108	    -12.26420924	      5.16674457	      2.32519989	      8.21036317	    -14.44916250	     -9.24406579	     56.23561949	     45.45734546	      0.00000000	      0.00000000	      5.68902254	     -9.53610515	     -1.55230922	     37.98603141	     45.76969075	      0.00000000	      0.00000000
     23.86514286	     -4.76390354	     -5.46031082	      4.85953771	      1.03562402	      0.92646391	      0.50081041	     13.83492910	      3.27914089	    -16.31814463	     19.39155552	     19.39155552	     11.88895164	     -4.20739032	     -1.96159285	     38.61439520	    -11.30523819	      4.60934891	     66.76656047	     66.76656047	      8.13493823	    -18.91792175	     14.21909059	    -12.26850527	      5.00015623	      2.91845851	      9.67787975	    -15.61022044	     -7.69350357	     59.55742573	     45.29538589	      0.00000000	      0.00000000	      6.20336780	     -8.76878419	     -1.10101767	     31.61929013	     45.78838380	      0.00000000	      0.00000000
     23.87685714	     -4.79494318	     -5.42698129	      5.10500114	      1.03373789	      0.92679264	      0.50105140	     13.10769099	      3.39626142	    -16.33432394	     18.80125498	     18.80125498	     12.11085360	     -4.21071431	     -1.92076271	     39.80155295	    -11.01022122	      4.55113631	     65.00019391	     65.00019391	      8.34331531	    -18.95218239	     14.52700189	    -12.37522150	      4.84991691	      2.62247385	     12.22255236	    -15.59294878	     -7.96011805	     61.58438015	     45.25022263	      0.00000000	      0.00000000	      4.62690942	     -8.64235151	     -0.94402779	     29.88831825	     45.75625614	      0.00000000	      0.00000000
